# xmcd
#
# Track frame offsets: 
#        150
#        16976
#        34755
#        54661
#        74188
#        90652
#        109872
#        128909
#        143452
#        162320
#        177237
#        195769
#        214200
#        230541
#
# Disc length: 3232 seconds
#
# Revision: 0
# Processed by: cddbd v1.5.2PL0 Copyright (c) Steve Scherf et al.
# Submitted via: ExactAudioCopy v1.1
#
DISCID=c20c9e0e
DTITLE=Clouseau - Tweesprong
DYEAR=2019
DGENRE=Pop
TTITLE0=Wereld Die Nooit Vergaat
TTITLE1=Tweesprong
TTITLE2=De Tijd Zal Nog Wel Komen
TTITLE3=Tijdmachine
TTITLE4=Dagen Zonder Zon
TTITLE5=California
TTITLE6=Nog Niets Gezien
TTITLE7=Nu Ik Jou Voor Mij Zie Staan
TTITLE8=Je Hoort Bij Mij
TTITLE9=Zuurstof
TTITLE10=Tijd Om Te Gaan
TTITLE11=Vandaag
TTITLE12=Heel Mijn Hart
TTITLE13=Als Jij Straks Gelukkig Bent
EXTD=
EXTT0=
EXTT1=
EXTT2=
EXTT3=
EXTT4=
EXTT5=
EXTT6=
EXTT7=
EXTT8=
EXTT9=
EXTT10=
EXTT11=
EXTT12=
EXTT13=
PLAYORDER=
